<svg width="26" height="26" viewBox="0 0 26 26" fill="none" xmlns="http://www.w3.org/2000/svg">
<rect opacity="0.3" x="4.53906" y="5.38477" width="15.2308" height="13.5385" rx="2.53846" fill="url(#paint0_linear_101_781)"/>
<path d="M12.1544 18.9232H7.07752C5.67557 18.9232 4.53906 17.7867 4.53906 16.3848V7.92323C4.53906 6.52128 5.67557 5.38477 7.07752 5.38477H17.2314C18.6333 5.38477 19.7698 6.52127 19.7698 7.92323V11.3078" stroke="#BAC6EE" stroke-width="0.846154" stroke-linecap="round"/>
<circle cx="17.6534" cy="16.8077" r="3.38462" stroke="#BAC6EE" stroke-width="0.846154"/>
<path d="M17.2303 15.5386V17.2309H18.9226" stroke="#437FF4" stroke-width="0.846154" stroke-linecap="round"/>
<path d="M7.92383 4.53857C7.92383 4.87704 7.92383 6.23088 7.92383 6.23088" stroke="#437FF4" stroke-width="0.846154" stroke-miterlimit="10" stroke-linecap="round"/>
<path d="M16.3848 4.53857C16.3848 4.87704 16.3848 6.23088 16.3848 6.23088" stroke="#437FF4" stroke-width="0.846154" stroke-miterlimit="10" stroke-linecap="round"/>
<g opacity="0.5" filter="url(#filter0_f_101_781)">
<circle cx="12.1537" cy="18.9232" r="2.53846" fill="#437FF4"/>
</g>
<g opacity="0.5" filter="url(#filter1_f_101_781)">
<circle cx="12.1538" cy="18.9231" r="2.03077" fill="#437FF4"/>
</g>
<g filter="url(#filter2_f_101_781)">
<circle cx="12.1539" cy="18.923" r="1.52308" fill="#BAC6EE"/>
</g>
<g filter="url(#filter3_f_101_781)">
<circle cx="12.1541" cy="18.9231" r="1.01538" fill="white"/>
</g>
<defs>
<filter id="filter0_f_101_781" x="5.5537" y="12.3232" width="13.2" height="13.2" filterUnits="userSpaceOnUse" color-interpolation-filters="sRGB">
<feFlood flood-opacity="0" result="BackgroundImageFix"/>
<feBlend mode="normal" in="SourceGraphic" in2="BackgroundImageFix" result="shape"/>
<feGaussianBlur stdDeviation="2.03077" result="effect1_foregroundBlur_101_781"/>
</filter>
<filter id="filter1_f_101_781" x="6.06151" y="12.8308" width="12.1846" height="12.1846" filterUnits="userSpaceOnUse" color-interpolation-filters="sRGB">
<feFlood flood-opacity="0" result="BackgroundImageFix"/>
<feBlend mode="normal" in="SourceGraphic" in2="BackgroundImageFix" result="shape"/>
<feGaussianBlur stdDeviation="2.03077" result="effect1_foregroundBlur_101_781"/>
</filter>
<filter id="filter2_f_101_781" x="8.60009" y="15.3691" width="7.1077" height="7.10768" filterUnits="userSpaceOnUse" color-interpolation-filters="sRGB">
<feFlood flood-opacity="0" result="BackgroundImageFix"/>
<feBlend mode="normal" in="SourceGraphic" in2="BackgroundImageFix" result="shape"/>
<feGaussianBlur stdDeviation="1.01538" result="effect1_foregroundBlur_101_781"/>
</filter>
<filter id="filter3_f_101_781" x="10.631" y="17.4" width="3.04616" height="3.04615" filterUnits="userSpaceOnUse" color-interpolation-filters="sRGB">
<feFlood flood-opacity="0" result="BackgroundImageFix"/>
<feBlend mode="normal" in="SourceGraphic" in2="BackgroundImageFix" result="shape"/>
<feGaussianBlur stdDeviation="0.253846" result="effect1_foregroundBlur_101_781"/>
</filter>
<linearGradient id="paint0_linear_101_781" x1="4.53906" y1="4.96169" x2="19.3468" y2="18.0771" gradientUnits="userSpaceOnUse">
<stop stop-color="#437FF4"/>
<stop offset="0.866748" stop-color="#01010A"/>
</linearGradient>
</defs>
</svg>
