<svg width="43" height="42" viewBox="0 0 43 42" fill="none" xmlns="http://www.w3.org/2000/svg">
<g clip-path="url(#clip0_515_550)">
<path d="M35.2847 16.9648C35.9991 18.0299 36.7784 18.7204 37.6294 18.9506C38.4668 19.1773 39.4478 18.9712 40.6031 18.26C41.0679 17.9715 41.6763 18.1192 41.96 18.5864C42.0557 18.7445 42.1035 18.9162 42.1069 19.0915C42.1514 19.5724 42.1787 20.0603 42.189 20.555C42.1992 21.0566 42.1958 21.5548 42.1719 22.0495C42.1719 22.0941 42.1685 22.1388 42.1616 22.18C41.8506 27.9243 39.2666 33.0055 35.3257 36.5854C31.378 40.1721 26.0768 42.2506 20.3483 41.9758V41.9792C20.3038 41.9792 20.2594 41.9758 20.2184 41.9689C14.5036 41.6562 9.44843 39.059 5.88692 35.0978C2.31516 31.1297 0.250718 25.8011 0.524154 20.0431C0.524154 19.9984 0.527572 19.9538 0.534408 19.9126C0.842024 14.1614 3.51144 9.05273 7.53095 5.45226C11.5539 1.84492 16.9372 -0.250776 22.6656 0.0240696C23.2125 0.0240696 23.6534 0.467257 23.6534 1.01695C23.6534 1.15437 23.6261 1.28492 23.5748 1.40173C23.1749 2.71068 23.1476 3.92344 23.4825 4.88539C23.7867 5.75803 24.4054 6.43483 25.3316 6.78183C25.8238 6.96735 26.0836 7.50329 25.9264 8.00145H25.9298C25.3043 10.025 25.2906 11.8081 25.7521 13.2441C26.0323 14.1133 26.4835 14.8554 27.0782 15.4429C27.6729 16.0338 28.4112 16.4736 29.2623 16.7415C30.6431 17.1744 32.3179 17.1469 34.1534 16.5526C34.5875 16.4151 35.0489 16.5938 35.2847 16.9648ZM20.7618 19.8782C21.7086 19.8782 22.4742 20.6478 22.4742 21.5994C22.4742 22.5511 21.7086 23.3206 20.7618 23.3206C19.8151 23.3206 19.0494 22.5511 19.0494 21.5994C19.0494 20.6478 19.8185 19.8782 20.7618 19.8782ZM13.3381 26.9658C14.4899 26.9658 15.4264 27.9037 15.4264 29.0649C15.4264 30.2261 14.4933 31.164 13.3381 31.164C12.1828 31.164 11.2497 30.2261 11.2497 29.0649C11.2497 27.9037 12.1828 26.9658 13.3381 26.9658ZM17.8361 10.9079C18.7418 10.9079 19.4733 11.6432 19.4733 12.5536C19.4733 13.464 18.7418 14.1992 17.8361 14.1992C16.9303 14.1992 16.1989 13.464 16.1989 12.5536C16.1989 11.6432 16.9337 10.9079 17.8361 10.9079ZM41.2764 11.1313C41.9531 11.1313 42.5 11.6809 42.5 12.3612C42.5 13.0414 41.9531 13.5911 41.2764 13.5911C40.5996 13.5911 40.0528 13.0414 40.0528 12.3612C40.0493 11.6844 40.5996 11.1313 41.2764 11.1313ZM32.4991 7.8709C33.5176 7.8709 34.3414 8.69887 34.3414 9.72267C34.3414 10.7465 33.5176 11.5744 32.4991 11.5744C31.4805 11.5744 30.6568 10.7465 30.6568 9.72267C30.6568 8.70231 31.4805 7.8709 32.4991 7.8709ZM33.9244 0.202719C35.0147 0.202719 35.8999 1.09253 35.8999 2.18848C35.8999 3.28442 35.0147 4.17423 33.9244 4.17423C32.834 4.17423 31.9488 3.28442 31.9488 2.18848C31.9522 1.08909 32.834 0.202719 33.9244 0.202719ZM26.7262 27.701C28.2403 27.701 29.4708 28.9344 29.4708 30.4597C29.4708 31.9817 28.2437 33.2185 26.7262 33.2185C25.2086 33.2185 23.9816 31.9851 23.9816 30.4597C23.9816 28.9344 25.2086 27.701 26.7262 27.701ZM11.4069 16.0716C13.0475 16.0716 14.3771 17.408 14.3771 19.0571C14.3771 20.7062 13.0475 22.0426 11.4069 22.0426C9.76629 22.0426 8.43671 20.7062 8.43671 19.0571C8.43671 17.4115 9.76629 16.0716 11.4069 16.0716ZM37.1167 20.8676C35.9581 20.555 34.9463 19.7889 34.0577 18.6414C32.0821 19.1636 30.2432 19.1258 28.671 18.6345C27.5191 18.2738 26.5108 17.6691 25.6939 16.8549C24.8771 16.0407 24.255 15.0272 23.8756 13.8488C23.3595 12.2478 23.298 10.3445 23.8141 8.24194C22.7545 7.62354 22.0196 6.68563 21.6197 5.53472C21.2574 4.48687 21.1823 3.27068 21.4113 1.97891C16.6569 2.04418 12.2238 3.90282 8.84345 6.93299C5.19649 10.2002 2.77658 14.8245 2.49631 20.0259V20.0431L2.49289 20.0878C2.23313 25.327 4.10617 30.1712 7.34297 33.7716C10.5695 37.3584 15.1496 39.7117 20.3312 39.99H20.3483L20.3927 39.9934C25.6017 40.258 30.4244 38.3753 34.0064 35.1184C37.5747 31.8752 39.916 27.2715 40.1929 22.0632V22.046L40.1963 22.0014C40.2202 21.541 40.2271 21.0944 40.2168 20.6581C39.1162 21.0738 38.084 21.1322 37.1167 20.8676Z" fill="url(#paint0_linear_515_550)"/>
</g>
<defs>
<linearGradient id="paint0_linear_515_550" x1="0.5" y1="23.1212" x2="42.5" y2="23.1212" gradientUnits="userSpaceOnUse">
<stop stop-color="#A2C1FF"/>
<stop offset="1" stop-color="#00497F"/>
</linearGradient>
<clipPath id="clip0_515_550">
<rect width="42" height="42" fill="white" transform="translate(0.5)"/>
</clipPath>
</defs>
</svg>
