<svg width="49" height="48" viewBox="0 0 49 48" fill="none" xmlns="http://www.w3.org/2000/svg">
<g clip-path="url(#clip0_515_544)">
<path d="M24.5 2V46" stroke="#BAC6EE" stroke-width="2" stroke-linecap="round" stroke-linejoin="round"/>
<path d="M24.5 2V46" stroke="url(#paint0_linear_515_544)" stroke-width="2" stroke-linecap="round" stroke-linejoin="round"/>
<path d="M34.5 10H19.5C17.6435 10 15.863 10.7375 14.5503 12.0503C13.2375 13.363 12.5 15.1435 12.5 17C12.5 18.8565 13.2375 20.637 14.5503 21.9497C15.863 23.2625 17.6435 24 19.5 24H29.5C31.3565 24 33.137 24.7375 34.4497 26.0503C35.7625 27.363 36.5 29.1435 36.5 31C36.5 32.8565 35.7625 34.637 34.4497 35.9497C33.137 37.2625 31.3565 38 29.5 38H12.5" stroke="url(#paint1_linear_515_544)" stroke-width="2" stroke-linecap="round" stroke-linejoin="round"/>
</g>
<defs>
<linearGradient id="paint0_linear_515_544" x1="24.5" y1="26.2222" x2="25.5" y2="26.2222" gradientUnits="userSpaceOnUse">
<stop stop-color="#A2C1FF"/>
<stop offset="1" stop-color="#00497F"/>
</linearGradient>
<linearGradient id="paint1_linear_515_544" x1="12.5" y1="25.4141" x2="36.5" y2="25.4141" gradientUnits="userSpaceOnUse">
<stop stop-color="#A2C1FF"/>
<stop offset="1" stop-color="#00497F"/>
</linearGradient>
<clipPath id="clip0_515_544">
<rect width="48" height="48" fill="white" transform="translate(0.5)"/>
</clipPath>
</defs>
</svg>
