<svg width="49" height="48" viewBox="0 0 49 48" fill="none" xmlns="http://www.w3.org/2000/svg">
<g clip-path="url(#clip0_515_545)">
<path d="M40.5 42V38C40.5 35.8783 39.6571 33.8434 38.1569 32.3431C36.6566 30.8429 34.6217 30 32.5 30H16.5C14.3783 30 12.3434 30.8429 10.8431 32.3431C9.34285 33.8434 8.5 35.8783 8.5 38V42" stroke="url(#paint0_linear_515_545)" stroke-width="2" stroke-linecap="round" stroke-linejoin="round"/>
<path d="M24.5 22C28.9183 22 32.5 18.4183 32.5 14C32.5 9.58172 28.9183 6 24.5 6C20.0817 6 16.5 9.58172 16.5 14C16.5 18.4183 20.0817 22 24.5 22Z" stroke="url(#paint1_linear_515_545)" stroke-width="2" stroke-linecap="round" stroke-linejoin="round"/>
</g>
<defs>
<linearGradient id="paint0_linear_515_545" x1="8.5" y1="36.6061" x2="40.5" y2="36.6061" gradientUnits="userSpaceOnUse">
<stop stop-color="#A2C1FF"/>
<stop offset="1" stop-color="#00497F"/>
</linearGradient>
<linearGradient id="paint1_linear_515_545" x1="16.5" y1="14.8081" x2="32.5" y2="14.8081" gradientUnits="userSpaceOnUse">
<stop stop-color="#A2C1FF"/>
<stop offset="1" stop-color="#00497F"/>
</linearGradient>
<clipPath id="clip0_515_545">
<rect width="48" height="48" fill="white" transform="translate(0.5)"/>
</clipPath>
</defs>
</svg>
