<svg width="1420" height="880" viewBox="0 0 1420 880" fill="none" xmlns="http://www.w3.org/2000/svg">
<g clip-path="url(#clip0_48_419)">
<rect width="1420" height="880" fill="url(#paint0_radial_48_419)"/>
<g filter="url(#filter0_f_48_419)">
<path d="M671.602 713.413C51.7263 720.344 -297.291 1116.56 -394.316 1313.8C322.132 2037.1 1480.37 1490.45 1969.94 1126.71C1795.44 986.059 1291.48 706.482 671.602 713.413Z" fill="url(#paint1_linear_48_419)"/>
</g>
<g filter="url(#filter1_f_48_419)">
<path d="M641.269 519.779C-102.758 542.99 -401.223 1033.42 -464.787 1161.94C-740.12 1513.16 -336.134 2509.64 -236.582 1567.49C-84.636 129.498 2185.44 377.861 2027.44 1311.09L2386.5 835.2C2090.09 732.426 2510.76 461.456 641.269 519.779Z" fill="url(#paint2_linear_48_419)"/>
</g>
<g filter="url(#filter2_f_48_419)">
<path d="M658.825 584.851C38.949 591.782 -310.069 987.996 -407.093 1185.24C309.354 1908.53 1467.59 1361.89 1957.16 998.152C1782.66 857.497 1278.7 577.921 658.825 584.851Z" fill="url(#paint3_linear_48_419)"/>
</g>
</g>
<defs>
<filter id="filter0_f_48_419" x="-404.316" y="703.287" width="2384.25" height="975.711" filterUnits="userSpaceOnUse" color-interpolation-filters="sRGB">
<feFlood flood-opacity="0" result="BackgroundImageFix"/>
<feBlend mode="normal" in="SourceGraphic" in2="BackgroundImageFix" result="shape"/>
<feGaussianBlur stdDeviation="5" result="effect1_foregroundBlur_48_419"/>
</filter>
<filter id="filter1_f_48_419" x="-609.3" y="461.646" width="3045.8" height="1550.2" filterUnits="userSpaceOnUse" color-interpolation-filters="sRGB">
<feFlood flood-opacity="0" result="BackgroundImageFix"/>
<feBlend mode="normal" in="SourceGraphic" in2="BackgroundImageFix" result="shape"/>
<feGaussianBlur stdDeviation="25" result="effect1_foregroundBlur_48_419"/>
</filter>
<filter id="filter2_f_48_419" x="-457.093" y="534.725" width="2464.25" height="1055.71" filterUnits="userSpaceOnUse" color-interpolation-filters="sRGB">
<feFlood flood-opacity="0" result="BackgroundImageFix"/>
<feBlend mode="normal" in="SourceGraphic" in2="BackgroundImageFix" result="shape"/>
<feGaussianBlur stdDeviation="25" result="effect1_foregroundBlur_48_419"/>
</filter>
<radialGradient id="paint0_radial_48_419" cx="0" cy="0" r="1" gradientUnits="userSpaceOnUse" gradientTransform="translate(781 -32.5) rotate(90) scale(925 2157.67)">
<stop stop-color="#1D4075"/>
<stop offset="0.622163" stop-color="#000108"/>
</radialGradient>
<linearGradient id="paint1_linear_48_419" x1="-587.641" y1="900.276" x2="1402.02" y2="1746.03" gradientUnits="userSpaceOnUse">
<stop stop-color="#F4F7FE"/>
<stop offset="0.208333" stop-color="#9A5DEA"/>
<stop offset="0.421875" stop-color="#3838CE"/>
<stop offset="0.609375" stop-color="#8D8DE2"/>
<stop offset="0.776042" stop-color="#E3E3E3"/>
<stop offset="1" stop-color="#6D1CD6"/>
</linearGradient>
<linearGradient id="paint2_linear_48_419" x1="-225.445" y1="926.599" x2="-115.076" y2="1147.57" gradientUnits="userSpaceOnUse">
<stop stop-color="#3838CE"/>
<stop offset="0.208333" stop-color="#5C85D6"/>
<stop offset="0.4375" stop-color="#5D95EA"/>
<stop offset="1" stop-color="#1C72D6" stop-opacity="0"/>
</linearGradient>
<linearGradient id="paint3_linear_48_419" x1="-600.418" y1="771.714" x2="1106.46" y2="1461.68" gradientUnits="userSpaceOnUse">
<stop stop-color="#3838CE"/>
<stop offset="0.232042" stop-color="#3C3CE6"/>
<stop offset="0.390037" stop-color="#408EF5"/>
<stop offset="0.609375" stop-color="#2761F6"/>
<stop offset="0.776042" stop-color="#81ADEF"/>
<stop offset="1" stop-color="#1C50D6"/>
</linearGradient>
<clipPath id="clip0_48_419">
<rect width="1420" height="880" fill="white"/>
</clipPath>
</defs>
</svg>
