<svg width="270" height="159" viewBox="0 0 270 159" fill="none" xmlns="http://www.w3.org/2000/svg">
<g clip-path="url(#clip0_42_6477)">
<path d="M48 17H47V158H48V17Z" fill="url(#paint0_linear_42_6477)"/>
<path d="M76 6H75V158H76V6Z" fill="url(#paint1_linear_42_6477)"/>
<path d="M104 0.300049H103V158H104V0.300049Z" fill="url(#paint2_linear_42_6477)"/>
<path d="M132 -12H131V128H132V-12Z" fill="url(#paint3_linear_42_6477)"/>
<path d="M160 0.300049H159V158H160V0.300049Z" fill="url(#paint4_linear_42_6477)"/>
<path d="M10.6992 92.7V93.7H247.999V92.7H10.6992Z" fill="url(#paint5_linear_42_6477)"/>
<path d="M10.6992 36.7V37.7H239.999V36.7H10.6992Z" fill="url(#paint6_linear_42_6477)"/>
<path d="M10.6992 120.7V121.7H278.999V120.7H10.6992Z" fill="url(#paint7_linear_42_6477)"/>
<path d="M188 12H187V143H188V12Z" fill="url(#paint8_linear_42_6477)"/>
<path d="M216 0.300049H215V158H216V0.300049Z" fill="url(#paint9_linear_42_6477)"/>
<path d="M244 0.300049H243V158H244V0.300049Z" fill="url(#paint10_linear_42_6477)"/>
<path d="M10.6992 64.7V65.7H278.999V64.7H10.6992Z" fill="url(#paint11_linear_42_6477)"/>
<path d="M10.6992 8.69995V9.69995H278.999V8.69995H10.6992Z" fill="url(#paint12_linear_42_6477)"/>
<path d="M16.5 53C16.7761 53 17 52.7761 17 52.5C17 52.2239 16.7761 52 16.5 52C16.2239 52 16 52.2239 16 52.5C16 52.7761 16.2239 53 16.5 53Z" fill="#BAC6EE"/>
<path d="M217.5 12C217.776 12 218 11.7761 218 11.5C218 11.2239 217.776 11 217.5 11C217.224 11 217 11.2239 217 11.5C217 11.7761 217.224 12 217.5 12Z" fill="#BAC6EE"/>
<path d="M112.5 100C112.776 100 113 99.7761 113 99.5C113 99.2239 112.776 99 112.5 99C112.224 99 112 99.2239 112 99.5C112 99.7761 112.224 100 112.5 100Z" fill="#BAC6EE"/>
<path d="M154.5 24C154.776 24 155 23.7761 155 23.5C155 23.2239 154.776 23 154.5 23C154.224 23 154 23.2239 154 23.5C154 23.7761 154.224 24 154.5 24Z" fill="#BAC6EE"/>
<path d="M263.5 92C263.776 92 264 91.7761 264 91.5C264 91.2239 263.776 91 263.5 91C263.224 91 263 91.2239 263 91.5C263 91.7761 263.224 92 263.5 92Z" fill="#BAC6EE"/>
<path d="M178.5 109C178.776 109 179 108.776 179 108.5C179 108.224 178.776 108 178.5 108C178.224 108 178 108.224 178 108.5C178 108.776 178.224 109 178.5 109Z" fill="#BAC6EE"/>
<path opacity="0.4" d="M68.5 9C68.7761 9 69 8.77614 69 8.5C69 8.22386 68.7761 8 68.5 8C68.2239 8 68 8.22386 68 8.5C68 8.77614 68.2239 9 68.5 9Z" fill="#BAC6EE"/>
<path opacity="0.4" d="M139.5 45C139.776 45 140 44.7761 140 44.5C140 44.2239 139.776 44 139.5 44C139.224 44 139 44.2239 139 44.5C139 44.7761 139.224 45 139.5 45Z" fill="#BAC6EE"/>
<path opacity="0.4" d="M163.5 135C163.776 135 164 134.776 164 134.5C164 134.224 163.776 134 163.5 134C163.224 134 163 134.224 163 134.5C163 134.776 163.224 135 163.5 135Z" fill="#BAC6EE"/>
<path opacity="0.4" d="M201.5 60C201.776 60 202 59.7761 202 59.5C202 59.2239 201.776 59 201.5 59C201.224 59 201 59.2239 201 59.5C201 59.7761 201.224 60 201.5 60Z" fill="#BAC6EE"/>
<path opacity="0.4" d="M185.5 113C185.776 113 186 112.776 186 112.5C186 112.224 185.776 112 185.5 112C185.224 112 185 112.224 185 112.5C185 112.776 185.224 113 185.5 113Z" fill="#BAC6EE"/>
<path opacity="0.4" d="M104.5 118C104.776 118 105 117.776 105 117.5C105 117.224 104.776 117 104.5 117C104.224 117 104 117.224 104 117.5C104 117.776 104.224 118 104.5 118Z" fill="#BAC6EE"/>
<g opacity="0.5" filter="url(#filter0_f_42_6477)">
<circle cx="187" cy="9" r="2" fill="#437FF4"/>
</g>
<g opacity="0.5" filter="url(#filter1_f_42_6477)">
<circle cx="187" cy="8.9999" r="1.6" fill="#437FF4"/>
</g>
<g filter="url(#filter2_f_42_6477)">
<circle cx="186.999" cy="9.00005" r="1.2" fill="#BAC6EE"/>
</g>
<g filter="url(#filter3_f_42_6477)">
<circle cx="187.001" cy="8.99995" r="0.8" fill="white"/>
</g>
<g opacity="0.5" filter="url(#filter4_f_42_6477)">
<circle cx="48" cy="121" r="2" fill="#437FF4"/>
</g>
<g opacity="0.5" filter="url(#filter5_f_42_6477)">
<circle cx="48.0004" cy="121" r="1.6" fill="#437FF4"/>
</g>
<g filter="url(#filter6_f_42_6477)">
<circle cx="47.9988" cy="121" r="1.2" fill="#BAC6EE"/>
</g>
<g filter="url(#filter7_f_42_6477)">
<circle cx="48.0012" cy="121" r="0.8" fill="white"/>
</g>
<g opacity="0.5" filter="url(#filter8_f_42_6477)">
<circle cx="135" cy="93" r="2" fill="#437FF4"/>
</g>
<g opacity="0.5" filter="url(#filter9_f_42_6477)">
<circle cx="135" cy="92.9999" r="1.6" fill="#437FF4"/>
</g>
<g filter="url(#filter10_f_42_6477)">
<circle cx="134.999" cy="93" r="1.2" fill="#BAC6EE"/>
</g>
<g filter="url(#filter11_f_42_6477)">
<circle cx="135.001" cy="93" r="0.8" fill="white"/>
</g>
</g>
<defs>
<filter id="filter0_f_42_6477" x="181.8" y="3.8" width="10.4" height="10.4" filterUnits="userSpaceOnUse" color-interpolation-filters="sRGB">
<feFlood flood-opacity="0" result="BackgroundImageFix"/>
<feBlend mode="normal" in="SourceGraphic" in2="BackgroundImageFix" result="shape"/>
<feGaussianBlur stdDeviation="1.6" result="effect1_foregroundBlur_42_6477"/>
</filter>
<filter id="filter1_f_42_6477" x="182.2" y="4.1999" width="9.59995" height="9.59995" filterUnits="userSpaceOnUse" color-interpolation-filters="sRGB">
<feFlood flood-opacity="0" result="BackgroundImageFix"/>
<feBlend mode="normal" in="SourceGraphic" in2="BackgroundImageFix" result="shape"/>
<feGaussianBlur stdDeviation="1.6" result="effect1_foregroundBlur_42_6477"/>
</filter>
<filter id="filter2_f_42_6477" x="184.199" y="6.20005" width="5.5999" height="5.5999" filterUnits="userSpaceOnUse" color-interpolation-filters="sRGB">
<feFlood flood-opacity="0" result="BackgroundImageFix"/>
<feBlend mode="normal" in="SourceGraphic" in2="BackgroundImageFix" result="shape"/>
<feGaussianBlur stdDeviation="0.8" result="effect1_foregroundBlur_42_6477"/>
</filter>
<filter id="filter3_f_42_6477" x="185.801" y="7.79995" width="2.4001" height="2.4001" filterUnits="userSpaceOnUse" color-interpolation-filters="sRGB">
<feFlood flood-opacity="0" result="BackgroundImageFix"/>
<feBlend mode="normal" in="SourceGraphic" in2="BackgroundImageFix" result="shape"/>
<feGaussianBlur stdDeviation="0.2" result="effect1_foregroundBlur_42_6477"/>
</filter>
<filter id="filter4_f_42_6477" x="42.8" y="115.8" width="10.4" height="10.4" filterUnits="userSpaceOnUse" color-interpolation-filters="sRGB">
<feFlood flood-opacity="0" result="BackgroundImageFix"/>
<feBlend mode="normal" in="SourceGraphic" in2="BackgroundImageFix" result="shape"/>
<feGaussianBlur stdDeviation="1.6" result="effect1_foregroundBlur_42_6477"/>
</filter>
<filter id="filter5_f_42_6477" x="43.2004" y="116.2" width="9.59995" height="9.59995" filterUnits="userSpaceOnUse" color-interpolation-filters="sRGB">
<feFlood flood-opacity="0" result="BackgroundImageFix"/>
<feBlend mode="normal" in="SourceGraphic" in2="BackgroundImageFix" result="shape"/>
<feGaussianBlur stdDeviation="1.6" result="effect1_foregroundBlur_42_6477"/>
</filter>
<filter id="filter6_f_42_6477" x="45.1988" y="118.2" width="5.5999" height="5.5999" filterUnits="userSpaceOnUse" color-interpolation-filters="sRGB">
<feFlood flood-opacity="0" result="BackgroundImageFix"/>
<feBlend mode="normal" in="SourceGraphic" in2="BackgroundImageFix" result="shape"/>
<feGaussianBlur stdDeviation="0.8" result="effect1_foregroundBlur_42_6477"/>
</filter>
<filter id="filter7_f_42_6477" x="46.8012" y="119.8" width="2.4001" height="2.4001" filterUnits="userSpaceOnUse" color-interpolation-filters="sRGB">
<feFlood flood-opacity="0" result="BackgroundImageFix"/>
<feBlend mode="normal" in="SourceGraphic" in2="BackgroundImageFix" result="shape"/>
<feGaussianBlur stdDeviation="0.2" result="effect1_foregroundBlur_42_6477"/>
</filter>
<filter id="filter8_f_42_6477" x="129.8" y="87.8" width="10.4" height="10.4" filterUnits="userSpaceOnUse" color-interpolation-filters="sRGB">
<feFlood flood-opacity="0" result="BackgroundImageFix"/>
<feBlend mode="normal" in="SourceGraphic" in2="BackgroundImageFix" result="shape"/>
<feGaussianBlur stdDeviation="1.6" result="effect1_foregroundBlur_42_6477"/>
</filter>
<filter id="filter9_f_42_6477" x="130.2" y="88.1999" width="9.59995" height="9.59995" filterUnits="userSpaceOnUse" color-interpolation-filters="sRGB">
<feFlood flood-opacity="0" result="BackgroundImageFix"/>
<feBlend mode="normal" in="SourceGraphic" in2="BackgroundImageFix" result="shape"/>
<feGaussianBlur stdDeviation="1.6" result="effect1_foregroundBlur_42_6477"/>
</filter>
<filter id="filter10_f_42_6477" x="132.199" y="90.2" width="5.5999" height="5.5999" filterUnits="userSpaceOnUse" color-interpolation-filters="sRGB">
<feFlood flood-opacity="0" result="BackgroundImageFix"/>
<feBlend mode="normal" in="SourceGraphic" in2="BackgroundImageFix" result="shape"/>
<feGaussianBlur stdDeviation="0.8" result="effect1_foregroundBlur_42_6477"/>
</filter>
<filter id="filter11_f_42_6477" x="133.801" y="91.8" width="2.4001" height="2.4001" filterUnits="userSpaceOnUse" color-interpolation-filters="sRGB">
<feFlood flood-opacity="0" result="BackgroundImageFix"/>
<feBlend mode="normal" in="SourceGraphic" in2="BackgroundImageFix" result="shape"/>
<feGaussianBlur stdDeviation="0.2" result="effect1_foregroundBlur_42_6477"/>
</filter>
<linearGradient id="paint0_linear_42_6477" x1="44.8351" y1="155.949" x2="47.576" y2="16.7022" gradientUnits="userSpaceOnUse">
<stop offset="0.00055926" stop-color="#0A0B15"/>
<stop offset="0.2254" stop-color="#3E75E1"/>
<stop offset="0.4106" stop-color="#101730"/>
<stop offset="1" stop-color="#213D81"/>
</linearGradient>
<linearGradient id="paint1_linear_42_6477" x1="72.6274" y1="155.789" x2="75.5822" y2="5.67982" gradientUnits="userSpaceOnUse">
<stop offset="0.00055926" stop-color="#0A0B15"/>
<stop offset="0.2846" stop-color="#111A37"/>
<stop offset="0.7531" stop-color="#1B2F68"/>
<stop offset="1" stop-color="#294C9B"/>
</linearGradient>
<linearGradient id="paint2_linear_42_6477" x1="100.521" y1="155.706" x2="103.585" y2="0.00708747" gradientUnits="userSpaceOnUse">
<stop offset="0.00625185" stop-color="#0A0A12"/>
<stop offset="0.220737" stop-color="#2F57AC"/>
<stop offset="0.2846" stop-color="#111A37"/>
<stop offset="0.7531" stop-color="#1B2F68"/>
<stop offset="1" stop-color="#2F58AD"/>
</linearGradient>
<linearGradient id="paint3_linear_42_6477" x1="128.855" y1="125.966" x2="131.577" y2="-12.2965" gradientUnits="userSpaceOnUse">
<stop offset="0.00055926" stop-color="#0A0B15"/>
<stop offset="0.2846" stop-color="#111A37"/>
<stop offset="0.848594" stop-color="#375CAD"/>
<stop offset="1" stop-color="#325DB5"/>
</linearGradient>
<linearGradient id="paint4_linear_42_6477" x1="156.521" y1="155.704" x2="159.586" y2="0.00552845" gradientUnits="userSpaceOnUse">
<stop offset="0.00055926" stop-color="#0A0B15"/>
<stop offset="0.2846" stop-color="#111A37"/>
<stop offset="0.7531" stop-color="#1B2F68"/>
<stop offset="1" stop-color="#335EB7"/>
</linearGradient>
<linearGradient id="paint5_linear_42_6477" x1="14.2516" y1="88.6498" x2="248.622" y2="93.2632" gradientUnits="userSpaceOnUse">
<stop offset="0.00209659" stop-color="#0D1121"/>
<stop offset="0.379671" stop-color="#16244B"/>
<stop offset="0.4998" stop-color="#3F77E4"/>
<stop offset="0.657617" stop-color="#121B38"/>
<stop offset="1" stop-color="#131D3D"/>
</linearGradient>
<linearGradient id="paint6_linear_42_6477" x1="14.1339" y1="32.8004" x2="240.605" y2="37.2584" gradientUnits="userSpaceOnUse">
<stop offset="0.00055926" stop-color="#192B60"/>
<stop offset="0.2846" stop-color="#7595DB"/>
<stop offset="0.7531" stop-color="#20397A"/>
<stop offset="0.9995" stop-color="#203A7D"/>
</linearGradient>
<linearGradient id="paint7_linear_42_6477" x1="10.9103" y1="115.916" x2="275.892" y2="121.132" gradientUnits="userSpaceOnUse">
<stop offset="0.00055926" stop-color="#0A0A12"/>
<stop offset="0.1112" stop-color="#437FF4"/>
<stop offset="0.350774" stop-color="#2E55A8"/>
<stop offset="0.467695" stop-color="#15213F"/>
<stop offset="1" stop-color="#0E1329"/>
</linearGradient>
<linearGradient id="paint8_linear_42_6477" x1="185.025" y1="141.095" x2="187.572" y2="11.7188" gradientUnits="userSpaceOnUse">
<stop offset="0.00055926" stop-color="#0A0B15"/>
<stop offset="0.155033" stop-color="#121B35"/>
<stop offset="0.2846" stop-color="#111A37"/>
<stop offset="0.7531" stop-color="#1B2F68"/>
<stop offset="1" stop-color="#2C51A3"/>
</linearGradient>
<linearGradient id="paint9_linear_42_6477" x1="212.522" y1="155.703" x2="215.587" y2="0.00397028" gradientUnits="userSpaceOnUse">
<stop offset="0.00055926" stop-color="#0A0B15"/>
<stop offset="0.2303" stop-color="#111A37"/>
<stop offset="0.5193" stop-color="#3563C0"/>
<stop offset="0.8478" stop-color="#274793"/>
<stop offset="0.9955" stop-color="#3766C6"/>
</linearGradient>
<linearGradient id="paint10_linear_42_6477" x1="240.522" y1="155.702" x2="243.587" y2="0.00321356" gradientUnits="userSpaceOnUse">
<stop offset="0.000558981" stop-color="#0B0D18"/>
<stop offset="0.5492" stop-color="#182857"/>
<stop offset="1" stop-color="#406ECA"/>
</linearGradient>
<linearGradient id="paint11_linear_42_6477" x1="14.7007" y1="60.0636" x2="279.682" y2="65.2796" gradientUnits="userSpaceOnUse">
<stop offset="0.00055912" stop-color="#121B39"/>
<stop offset="0.1246" stop-color="#142045"/>
<stop offset="0.5445" stop-color="#233E7F"/>
<stop offset="0.7579" stop-color="#437FF4"/>
<stop offset="0.8371" stop-color="#182754" stop-opacity="0.1"/>
<stop offset="1" stop-color="#192A5A"/>
</linearGradient>
<linearGradient id="paint12_linear_42_6477" x1="10.9071" y1="3.91551" x2="275.888" y2="9.13144" gradientUnits="userSpaceOnUse">
<stop stop-color="#274691"/>
<stop offset="0.4123" stop-color="#2D52A5"/>
<stop offset="0.6738" stop-color="#7494DB"/>
<stop offset="0.8464" stop-color="#3563C0"/>
<stop offset="1" stop-color="#3B6AC8"/>
</linearGradient>
<clipPath id="clip0_42_6477">
<rect width="270" height="159" fill="white"/>
</clipPath>
</defs>
</svg>
