<svg width="26" height="26" viewBox="0 0 26 26" fill="none" xmlns="http://www.w3.org/2000/svg">
<path fill-rule="evenodd" clip-rule="evenodd" d="M18.4453 9.97705C18.2116 9.97705 18.0222 10.1665 18.0222 10.4001C18.0222 10.6338 18.2116 10.8232 18.4453 10.8232H20.1928C20.1871 10.8284 20.1814 10.8337 20.1759 10.8392L17.4972 13.5179L13.0075 14.4159L12.8819 14.441L12.7913 14.5316L6.32974 20.9931C6.16452 21.1583 6.16452 21.4262 6.32974 21.5914C6.49496 21.7566 6.76284 21.7566 6.92806 21.5914L13.299 15.2205L17.7888 14.3225L17.9144 14.2974L18.005 14.2068L20.7742 11.4376C20.7802 11.4316 20.7859 11.4255 20.7915 11.4193V13.1694C20.7915 13.403 20.9809 13.5924 21.2145 13.5924C21.4482 13.5924 21.6376 13.403 21.6376 13.1694V10.4001V9.97705H21.2145H18.4453ZM20.7915 10.8575V10.8232H20.7573C20.763 10.8284 20.7687 10.8337 20.7742 10.8392C20.7802 10.8452 20.7859 10.8513 20.7915 10.8575Z" fill="#437FF4"/>
<path d="M10.4609 20.6155C10.4609 20.9539 10.4609 22.3078 10.4609 22.3078" stroke="#BAC6EE" stroke-width="0.846154" stroke-miterlimit="10" stroke-linecap="round"/>
<path d="M13 18.9231C13 19.7354 13 22.3077 13 22.3077" stroke="#BAC6EE" stroke-width="0.846154" stroke-miterlimit="10" stroke-linecap="round"/>
<path d="M15.5391 19.7693C15.5391 20.4154 15.5391 22.3077 15.5391 22.3077" stroke="#BAC6EE" stroke-width="0.846154" stroke-miterlimit="10" stroke-linecap="round"/>
<path d="M18.0781 17.2307C18.0781 18.4717 18.0781 22.3076 18.0781 22.3076" stroke="#BAC6EE" stroke-width="0.846154" stroke-miterlimit="10" stroke-linecap="round"/>
<path d="M20.6172 15.5386C20.6172 17.2534 20.6172 22.3078 20.6172 22.3078" stroke="#BAC6EE" stroke-width="0.846154" stroke-miterlimit="10" stroke-linecap="round"/>
<path d="M15.4853 11.177C15.6278 10.7827 15.699 10.3705 15.7525 9.94029C15.7703 9.81482 15.7703 9.70728 15.7703 9.59974C15.7703 9.52804 15.7703 9.45635 15.7703 9.40258C15.7703 8.73939 15.6456 8.09414 15.4319 7.50265C15.4141 7.44888 15.3963 7.39511 15.3785 7.34134C15.3785 7.34134 15.3785 7.34134 15.3785 7.32341C15.3429 7.21587 15.2895 7.10833 15.236 7.00078C15.1648 6.82155 15.0579 6.64231 14.9511 6.48099C14.9333 6.44515 14.9155 6.42722 14.8977 6.39137C14.6483 6.01497 14.3634 5.6565 14.025 5.35179C13.9716 5.29802 13.9004 5.24425 13.847 5.19048C13.8291 5.17255 13.8113 5.15463 13.7935 5.15463C13.7757 5.13671 13.7579 5.11878 13.7401 5.10086C13.5798 4.97539 13.4374 4.84993 13.2771 4.76031L13.2593 4.74238C13.2593 4.74238 13.2415 4.72446 13.2237 4.72446C13.1346 4.67069 13.0278 4.59899 12.9209 4.54522C12.7428 4.43768 12.5647 4.34806 12.3688 4.27636C12.3154 4.24052 12.262 4.22259 12.2086 4.22259C12.0127 4.13297 11.8168 4.0792 11.6031 4.02543C11.5675 4.02543 11.5497 4.00751 11.514 4.00751C11.4784 3.98958 11.425 3.98958 11.3894 3.97166C11.3003 3.93581 11.2113 3.91789 11.1044 3.89996C10.9264 3.86412 10.7127 3.84619 10.5168 3.84619C10.4633 3.84619 10.4099 3.84619 10.3565 3.84619C10.3209 3.84619 10.2674 3.84619 10.2318 3.84619C9.89346 3.84619 9.5551 3.88204 9.23454 3.93581C9.18112 3.93581 9.12769 3.95373 9.09207 3.95373C8.98522 3.98958 8.87837 4.00751 8.77152 4.04335C8.68248 4.04335 8.61124 4.0792 8.54001 4.09712C8.27288 4.18674 8.00575 4.27636 7.77424 4.41975C7.72081 4.43768 7.66739 4.47353 7.61396 4.49145C7.40026 4.61692 7.18656 4.76031 6.97285 4.9037C6.93724 4.93954 6.90162 4.95747 6.84819 4.99332C6.63449 5.17255 6.42079 5.35179 6.2427 5.54895C6.18928 5.60273 6.15366 5.63857 6.10024 5.71027C6.06462 5.74612 6.029 5.78196 5.99338 5.83574C5.79749 6.06875 5.6194 6.31968 5.47694 6.58854C5.44132 6.64231 5.42351 6.67815 5.38789 6.74985C5.28104 6.96494 5.17419 7.18002 5.08515 7.41303C5.03172 7.52057 4.9961 7.62812 4.96049 7.75358C4.87144 8.02244 4.80021 8.2913 4.76459 8.56016C4.74679 8.64978 4.74679 8.73939 4.72898 8.82901C4.69336 9.02618 4.69336 9.22334 4.69336 9.4205C4.69336 9.52804 4.69336 9.63559 4.69336 9.76105C4.69336 9.81482 4.69336 9.88652 4.71117 9.94029C4.71117 9.97614 4.71117 9.99406 4.71117 10.012C4.72898 10.1016 4.72898 10.1912 4.74679 10.2808C4.76459 10.4242 4.80021 10.5676 4.83583 10.6931C4.83583 10.7469 4.87144 10.8186 4.87144 10.8544C4.92487 10.9978 4.9783 11.1412 5.03172 11.2667C5.04953 11.3383 5.08515 11.3921 5.10296 11.4638C5.12076 11.5176 5.13857 11.5893 5.17419 11.6431C5.33447 12.0015 5.53036 12.3421 5.74406 12.6468C5.74406 12.6647 5.76187 12.6826 5.76187 12.6826C5.83311 12.7723 5.90434 12.8619 5.97558 12.9694C6.06462 13.059 6.13585 13.1487 6.2249 13.2562C6.50983 13.5609 6.84819 13.8477 7.20437 14.0807C7.25779 14.1165 7.29341 14.1524 7.34683 14.1703C7.36464 14.1703 7.36464 14.1882 7.38245 14.1882C7.47149 14.242 7.57835 14.3137 7.6852 14.3496C7.75643 14.4033 7.84547 14.4392 7.93452 14.475C7.98794 14.5109 8.02356 14.5288 8.09479 14.5467C8.23726 14.6005 8.37973 14.6543 8.5222 14.708C8.59343 14.7439 8.66467 14.7618 8.7359 14.7618C8.77152 14.7797 8.80714 14.7976 8.86056 14.7976C8.91399 14.8156 8.98522 14.8335 9.03865 14.8514C9.10988 14.8693 9.18112 14.8873 9.25235 14.8873C9.3592 14.9052 9.46605 14.9231 9.5729 14.9231" fill="url(#paint0_linear_101_760)" fill-opacity="0.3"/>
<path d="M15.4853 11.177C15.6278 10.7827 15.699 10.3705 15.7525 9.94029C15.7703 9.81482 15.7703 9.70728 15.7703 9.59974C15.7703 9.52804 15.7703 9.45635 15.7703 9.40258C15.7703 8.73939 15.6456 8.09414 15.4319 7.50265C15.4141 7.44888 15.3963 7.39511 15.3785 7.34134C15.3785 7.34134 15.3785 7.34134 15.3785 7.32341C15.3429 7.21587 15.2895 7.10833 15.236 7.00078C15.1648 6.82155 15.0579 6.64231 14.9511 6.48099C14.9333 6.44515 14.9155 6.42722 14.8977 6.39137C14.6483 6.01497 14.3634 5.6565 14.025 5.35179C13.9716 5.29802 13.9004 5.24425 13.847 5.19048C13.8291 5.17255 13.8113 5.15463 13.7935 5.15463C13.7757 5.13671 13.7579 5.11878 13.7401 5.10086C13.5798 4.97539 13.4374 4.84993 13.2771 4.76031L13.2593 4.74238C13.2593 4.74238 13.2415 4.72446 13.2237 4.72446C13.1346 4.67069 13.0278 4.59899 12.9209 4.54522C12.7428 4.43768 12.5647 4.34806 12.3688 4.27636C12.3154 4.24052 12.262 4.22259 12.2086 4.22259C12.0127 4.13297 11.8168 4.0792 11.6031 4.02543C11.5675 4.02543 11.5497 4.00751 11.514 4.00751C11.4784 3.98958 11.425 3.98958 11.3894 3.97166C11.3003 3.93581 11.2113 3.91789 11.1044 3.89996C10.9264 3.86412 10.7127 3.84619 10.5168 3.84619C10.4633 3.84619 10.4099 3.84619 10.3565 3.84619C10.3209 3.84619 10.2674 3.84619 10.2318 3.84619C9.89346 3.84619 9.5551 3.88204 9.23454 3.93581C9.18112 3.93581 9.12769 3.95373 9.09207 3.95373C8.98522 3.98958 8.87837 4.00751 8.77152 4.04335C8.68248 4.04335 8.61124 4.0792 8.54001 4.09712C8.27288 4.18674 8.00575 4.27636 7.77424 4.41975C7.72081 4.43768 7.66739 4.47353 7.61396 4.49145C7.40026 4.61692 7.18656 4.76031 6.97285 4.9037C6.93724 4.93954 6.90162 4.95747 6.84819 4.99332C6.63449 5.17255 6.42079 5.35179 6.2427 5.54895C6.18928 5.60273 6.15366 5.63857 6.10024 5.71027C6.06462 5.74612 6.029 5.78196 5.99338 5.83574C5.79749 6.06875 5.6194 6.31968 5.47694 6.58854C5.44132 6.64231 5.42351 6.67815 5.38789 6.74985C5.28104 6.96494 5.17419 7.18002 5.08515 7.41303C5.03172 7.52057 4.9961 7.62812 4.96049 7.75358C4.87144 8.02244 4.80021 8.2913 4.76459 8.56016C4.74679 8.64978 4.74679 8.73939 4.72898 8.82901C4.69336 9.02618 4.69336 9.22334 4.69336 9.4205C4.69336 9.52804 4.69336 9.63559 4.69336 9.76105C4.69336 9.81482 4.69336 9.88652 4.71117 9.94029C4.71117 9.97614 4.71117 9.99406 4.71117 10.012C4.72898 10.1016 4.72898 10.1912 4.74679 10.2808C4.76459 10.4242 4.80021 10.5676 4.83583 10.6931C4.83583 10.7469 4.87144 10.8186 4.87144 10.8544C4.92487 10.9978 4.9783 11.1412 5.03172 11.2667C5.04953 11.3383 5.08515 11.3921 5.10296 11.4638C5.12076 11.5176 5.13857 11.5893 5.17419 11.6431C5.33447 12.0015 5.53036 12.3421 5.74406 12.6468C5.74406 12.6647 5.76187 12.6826 5.76187 12.6826C5.83311 12.7723 5.90434 12.8619 5.97558 12.9694C6.06462 13.059 6.13585 13.1487 6.2249 13.2562C6.50983 13.5609 6.84819 13.8477 7.20437 14.0807C7.25779 14.1165 7.29341 14.1524 7.34683 14.1703C7.36464 14.1703 7.36464 14.1882 7.38245 14.1882C7.47149 14.242 7.57835 14.3137 7.6852 14.3496C7.75643 14.4033 7.84547 14.4392 7.93452 14.475C7.98794 14.5109 8.02356 14.5288 8.09479 14.5467C8.23726 14.6005 8.37973 14.6543 8.5222 14.708C8.59343 14.7439 8.66467 14.7618 8.7359 14.7618C8.77152 14.7797 8.80714 14.7976 8.86056 14.7976C8.91399 14.8156 8.98522 14.8335 9.03865 14.8514C9.10988 14.8693 9.18112 14.8873 9.25235 14.8873C9.3592 14.9052 9.46605 14.9231 9.5729 14.9231" stroke="#BAC6EE" stroke-width="0.846154" stroke-miterlimit="10" stroke-linecap="round"/>
<path d="M10.0922 9.08252H11.0002C11.6606 9.08252 12.1559 9.57782 12.1559 10.1557C12.1559 10.7335 11.6606 11.2288 11.0002 11.2288H9.10156" stroke="#BAC6EE" stroke-width="0.846154" stroke-miterlimit="10" stroke-linecap="round"/>
<path d="M10.9157 9.0826H10.0076C9.26467 9.0826 8.76936 8.5873 8.76936 8.00944C8.76936 7.43158 9.26467 6.93628 9.92508 6.93628H11.8237" stroke="#BAC6EE" stroke-width="0.846154" stroke-miterlimit="10" stroke-linecap="round"/>
<path d="M10.502 5.86304V6.7711" stroke="#BAC6EE" stroke-width="0.846154" stroke-miterlimit="10" stroke-linecap="round"/>
<path d="M10.502 11.2288V12.1368" stroke="#BAC6EE" stroke-width="0.846154" stroke-miterlimit="10" stroke-linecap="round"/>
<g opacity="0.5" filter="url(#filter0_f_101_760)">
<circle cx="14.9255" cy="11.5385" r="2.76923" fill="#437FF4"/>
</g>
<g opacity="0.5" filter="url(#filter1_f_101_760)">
<circle cx="14.9244" cy="11.5384" r="2.21538" fill="#437FF4"/>
</g>
<g filter="url(#filter2_f_101_760)">
<circle cx="14.9252" cy="11.5385" r="1.66154" fill="#BAC6EE"/>
</g>
<g filter="url(#filter3_f_101_760)">
<circle cx="14.928" cy="11.5386" r="1.10769" fill="white"/>
</g>
<defs>
<filter id="filter0_f_101_760" x="8.09471" y="4.70775" width="13.6615" height="13.6617" filterUnits="userSpaceOnUse" color-interpolation-filters="sRGB">
<feFlood flood-opacity="0" result="BackgroundImageFix"/>
<feBlend mode="normal" in="SourceGraphic" in2="BackgroundImageFix" result="shape"/>
<feGaussianBlur stdDeviation="2.03077" result="effect1_foregroundBlur_101_760"/>
</filter>
<filter id="filter1_f_101_760" x="8.64745" y="5.26146" width="12.5538" height="12.5537" filterUnits="userSpaceOnUse" color-interpolation-filters="sRGB">
<feFlood flood-opacity="0" result="BackgroundImageFix"/>
<feBlend mode="normal" in="SourceGraphic" in2="BackgroundImageFix" result="shape"/>
<feGaussianBlur stdDeviation="2.03077" result="effect1_foregroundBlur_101_760"/>
</filter>
<filter id="filter2_f_101_760" x="11.2329" y="7.84618" width="7.38461" height="7.38454" filterUnits="userSpaceOnUse" color-interpolation-filters="sRGB">
<feFlood flood-opacity="0" result="BackgroundImageFix"/>
<feBlend mode="normal" in="SourceGraphic" in2="BackgroundImageFix" result="shape"/>
<feGaussianBlur stdDeviation="1.01538" result="effect1_foregroundBlur_101_760"/>
</filter>
<filter id="filter3_f_101_760" x="13.3126" y="9.92322" width="3.23076" height="3.23072" filterUnits="userSpaceOnUse" color-interpolation-filters="sRGB">
<feFlood flood-opacity="0" result="BackgroundImageFix"/>
<feBlend mode="normal" in="SourceGraphic" in2="BackgroundImageFix" result="shape"/>
<feGaussianBlur stdDeviation="0.253846" result="effect1_foregroundBlur_101_760"/>
</filter>
<linearGradient id="paint0_linear_101_760" x1="7.00105" y1="5.23081" x2="12.5395" y2="13.077" gradientUnits="userSpaceOnUse">
<stop stop-color="#437FF4"/>
<stop offset="1" stop-color="#01010A"/>
</linearGradient>
</defs>
</svg>
