<svg width="25" height="24" viewBox="0 0 25 24" fill="none" xmlns="http://www.w3.org/2000/svg">
<g clip-path="url(#clip0_137_2236)">
<g clip-path="url(#clip1_137_2236)">
<path d="M12.6667 24C19.2942 24 24.6667 18.6274 24.6667 12C24.6667 5.37258 19.2942 0 12.6667 0C6.03933 0 0.666748 5.37258 0.666748 12C0.666748 18.6274 6.03933 24 12.6667 24Z" fill="#F0F0F0"/>
<path d="M12.1445 12.0001H24.6662C24.6662 10.917 24.5219 9.86774 24.2529 8.86963H12.1445V12.0001Z" fill="#D80027"/>
<path d="M12.1445 5.73836H22.905C22.1704 4.53968 21.2312 3.48016 20.1361 2.60791H12.1445V5.73836Z" fill="#D80027"/>
<path d="M12.6663 23.9998C15.4905 23.9998 18.0863 23.0237 20.1362 21.3911H5.19653C7.24638 23.0237 9.84217 23.9998 12.6663 23.9998Z" fill="#D80027"/>
<path d="M2.42772 18.2598H22.9052C23.4949 17.2975 23.9523 16.2457 24.2531 15.1294H1.07983C1.38063 16.2457 1.83799 17.2975 2.42772 18.2598Z" fill="#D80027"/>
<path d="M6.22537 1.87397H7.31892L6.30173 2.61295L6.69028 3.80869L5.67314 3.0697L4.656 3.80869L4.99162 2.7757C4.09603 3.52172 3.31106 4.39575 2.66419 5.36963H3.01458L2.36709 5.84002C2.26622 6.0083 2.16947 6.17925 2.07675 6.35273L2.38594 7.30434L1.80909 6.88523C1.6657 7.18903 1.53454 7.49967 1.41665 7.81678L1.75729 8.86528H3.01458L1.99739 9.60427L2.38594 10.8L1.36879 10.061L0.759514 10.5037C0.698529 10.9939 0.666748 11.4932 0.666748 12H12.6667C12.6667 5.37262 12.6667 4.59131 12.6667 0C10.2962 0 8.08636 0.687656 6.22537 1.87397ZM6.69028 10.8L5.67314 10.061L4.656 10.8L5.04454 9.60427L4.02736 8.86528H5.28464L5.67314 7.66955L6.06164 8.86528H7.31892L6.30173 9.60427L6.69028 10.8ZM6.30173 6.10861L6.69028 7.30434L5.67314 6.56536L4.656 7.30434L5.04454 6.10861L4.02736 5.36963H5.28464L5.67314 4.17389L6.06164 5.36963H7.31892L6.30173 6.10861ZM10.9946 10.8L9.97748 10.061L8.96034 10.8L9.34889 9.60427L8.3317 8.86528H9.58898L9.97748 7.66955L10.366 8.86528H11.6233L10.6061 9.60427L10.9946 10.8ZM10.6061 6.10861L10.9946 7.30434L9.97748 6.56536L8.96034 7.30434L9.34889 6.10861L8.3317 5.36963H9.58898L9.97748 4.17389L10.366 5.36963H11.6233L10.6061 6.10861ZM10.6061 2.61295L10.9946 3.80869L9.97748 3.0697L8.96034 3.80869L9.34889 2.61295L8.3317 1.87397H9.58898L9.97748 0.678234L10.366 1.87397H11.6233L10.6061 2.61295Z" fill="#0052B4"/>
</g>
</g>
<defs>
<clipPath id="clip0_137_2236">
<rect width="24" height="24" fill="white" transform="translate(0.666748)"/>
</clipPath>
<clipPath id="clip1_137_2236">
<rect width="24" height="24" fill="white" transform="translate(0.666748)"/>
</clipPath>
</defs>
</svg>
