<svg width="173" height="64" viewBox="0 0 173 64" fill="none" xmlns="http://www.w3.org/2000/svg">
<path fill-rule="evenodd" clip-rule="evenodd" d="M61.8833 19.0185V38.037H66.5648H71.2463V30.7222C71.2463 25.8944 71.2463 23.2611 71.2463 22.9685C71.3926 22.237 71.5389 21.5056 71.9778 20.9204C72.563 19.8963 73.587 19.4574 74.7574 19.6037C76.3667 19.75 77.3907 20.6278 77.6833 22.5296C77.6833 22.8222 77.6833 25.7481 77.6833 30.4296V37.8907H82.3648H87.0463V29.113C87.0463 21.6519 87.0463 20.1889 86.9 19.4574C86.6074 16.8241 85.7296 14.7759 84.1204 13.313C82.8037 11.9963 81.1944 11.2648 79.2926 10.9722C78.5611 10.8259 76.513 10.9722 75.9278 11.1185C74.1722 11.5574 72.8556 12.1426 71.6852 13.4593L70.9537 14.0444V7.02222V0H66.2722H61.5907V19.0185H61.8833ZM161.365 0.292594C161.072 0.877779 151.563 23.8463 151.563 23.8463C151.563 23.8463 154.05 23.8463 157.122 23.8463H162.681L167.656 11.9963C170.435 5.41296 172.63 0 172.63 0C172.63 0 170.143 0 167.07 0H161.511L161.365 0.292594ZM41.4019 11.1185C39.3537 11.4111 37.7444 11.9963 36.1352 13.0204C32.9167 15.0685 30.8685 18.5796 30.2833 22.6759C29.9907 24.5778 30.137 26.9185 30.5759 28.6741C31.7463 33.2093 34.8185 36.7204 38.7685 38.037C40.2315 38.4759 40.8167 38.6222 42.5722 38.6222C43.8889 38.6222 44.3278 38.6222 44.7667 38.4759C46.6685 38.037 47.9852 37.3056 49.1556 36.1352L49.7407 35.55V36.7204V37.8907H54.2759H58.8111V24.7241V11.5574H54.2759H49.7407V12.7278V13.8981L49.3019 13.4593C48.2778 12.2889 46.8148 11.5574 44.913 11.1185C44.3278 10.9722 44.0352 10.9722 42.8648 10.9722C42.1333 11.1185 41.5481 11.1185 41.4019 11.1185ZM101.091 11.1185C98.6037 11.4111 95.9704 12.5815 94.0685 14.0444C90.4111 17.1167 88.5093 21.9444 89.2407 26.9185C89.9722 32.4778 93.9222 36.7204 99.4815 38.1833C100.652 38.4759 101.822 38.6222 103.285 38.6222C105.919 38.6222 107.82 38.1833 109.869 37.1593C113.965 35.1111 116.598 31.4537 117.183 26.9185C117.33 25.7482 117.33 23.8463 117.183 22.8222C116.891 20.6278 116.013 18.4333 114.696 16.6778C114.111 15.9463 112.941 14.6296 112.209 14.0444C110.161 12.4352 107.82 11.4111 105.187 11.1185C104.163 10.9722 102.115 10.9722 101.091 11.1185ZM130.935 11.1185C128.448 11.4111 125.961 12.4352 124.059 14.0444C123.328 14.6296 122.011 15.9463 121.572 16.6778C120.256 18.4333 119.524 20.6278 119.085 22.8222C118.939 23.8463 118.939 25.8944 119.085 26.9185C119.963 32.7704 124.206 37.3056 130.057 38.4759C131.228 38.7685 131.813 38.7685 133.13 38.7685C135.617 38.7685 137.811 38.3296 139.859 37.1593C145.272 34.3796 148.198 28.2352 146.881 21.9444C145.711 16.0926 141.03 11.85 135.031 11.1185C134.007 10.9722 131.959 10.9722 130.935 11.1185ZM0 11.7037C0 11.7037 2.48704 17.7019 5.55926 25.0167C8.63148 32.3315 11.1185 38.3296 11.1185 38.3296C11.1185 38.3296 10.2407 40.5241 9.07037 43.1574C7.9 45.7907 7.02222 47.8389 7.02222 47.9852C7.02222 48.1315 9.21667 47.9852 11.9963 47.9852H16.9704L24.4315 29.9907C28.5278 20.0426 31.8926 11.9963 31.8926 11.85C31.8926 11.85 30.8685 11.7037 26.9185 11.85H21.9444L18.8722 19.4574C17.5556 23.5537 16.2389 27.0648 16.2389 27.0648C16.2389 27.0648 14.9222 23.5537 13.1667 19.4574L10.2407 11.85H5.12037C2.34074 11.7037 0 11.7037 0 11.7037ZM45.937 19.6037C47.8389 20.0426 49.3019 21.5056 49.887 23.4074C50.0333 24.1389 50.0333 25.4556 49.887 26.187C49.4481 28.0889 47.9852 29.5519 46.0833 29.9907C45.3519 30.137 44.0352 30.137 43.3037 29.9907C41.6944 29.5519 40.2315 28.3815 39.6463 26.9185C38.9148 25.3093 39.2074 23.2611 40.0852 21.7982C41.4019 19.8963 43.5963 19.1648 45.937 19.6037ZM104.309 19.75C106.357 20.0426 107.967 21.6519 108.406 23.7C108.552 24.4315 108.552 25.6019 108.406 26.3333C107.967 28.2352 106.504 29.5519 104.748 30.137C104.163 30.2833 102.554 30.2833 101.969 30.137C100.506 29.6981 99.3352 28.6741 98.6037 27.3574C98.1648 26.4796 98.1648 26.0407 98.1648 25.0167C98.1648 24.1389 98.3111 23.7 98.6037 22.9685C99.0426 22.0907 99.6278 21.213 100.506 20.6278C101.383 19.75 102.846 19.4574 104.309 19.75ZM134.007 19.75C135.763 20.0426 137.226 21.213 137.811 22.8222C138.104 23.5537 138.25 23.9926 138.25 24.8704C138.25 25.8944 138.104 26.3333 137.811 27.2111C137.226 28.5278 135.909 29.5519 134.446 29.9907C133.861 30.137 132.252 30.137 131.667 29.9907C129.911 29.5519 128.448 28.0889 128.009 26.187C127.863 25.4556 127.863 24.1389 128.009 23.4074C128.594 21.0667 130.643 19.4574 132.983 19.4574C133.276 19.6037 133.715 19.6037 134.007 19.75ZM153.904 26.187C151.124 26.4796 149.076 28.5278 148.491 31.1611C148.344 31.8926 148.344 33.2093 148.491 33.9407C149.076 36.2815 150.831 37.8907 153.172 38.4759C153.465 38.4759 154.05 38.6222 154.489 38.6222C156.244 38.6222 157.707 38.037 158.878 36.8667C160.194 35.55 160.633 34.2333 160.633 32.4778C160.633 30.2833 159.609 28.3815 157.854 27.3574C156.683 26.3333 155.074 26.0407 153.904 26.187ZM76.8056 40.5241C74.9037 41.1093 74.0259 43.3037 75.05 44.913C75.3426 45.3519 75.9278 45.937 76.3667 46.0833C76.8056 46.2296 76.8056 46.2296 77.6833 46.2296C78.4148 46.2296 78.5611 46.2296 79 46.0833C79.5852 45.7907 80.1704 45.2056 80.463 44.6204C81.1944 43.1574 80.463 41.4019 79 40.6704C78.5611 40.3778 78.4148 40.3778 77.8296 40.3778C77.2444 40.3778 77.0981 40.3778 76.8056 40.5241ZM68.9056 40.6704C66.4185 41.1093 64.8093 42.7185 64.0778 45.3519C63.9315 45.7907 63.9315 46.2296 63.9315 46.8148V47.8389H62.9074H61.8833V50.0333V52.2278H62.9074H63.9315V57.4945V62.7611H66.7111H69.4907V57.4945V52.2278H71.3926H73.2944V50.0333V47.8389H71.3926H69.4907V47.4C69.637 46.3759 70.0759 45.6444 70.9537 45.4982C71.5389 45.3519 72.4167 45.3519 73.0019 45.6444C73.2944 45.7907 73.4407 45.7907 73.4407 45.7907C73.4407 45.7907 73.4407 44.7667 73.4407 43.45V41.1093L73.0019 40.963C72.4167 40.6704 71.6852 40.6704 70.6611 40.6704C69.9296 40.5241 69.3444 40.6704 68.9056 40.6704ZM91.1426 47.5463C89.9722 47.8389 89.0944 48.4241 88.5093 49.1556L88.2167 49.5945V48.7167V47.8389H85.437H82.6574V55.3V62.7611H85.437H88.2167V58.6648C88.2167 56.3241 88.2167 54.4222 88.2167 54.1296C88.363 53.5444 88.6556 52.9593 88.9482 52.6667C89.6796 52.0815 90.9963 52.2278 91.5815 52.9593C92.0204 53.5444 92.0204 53.5445 92.0204 58.2259V62.6148H94.8H97.5796V57.6407C97.5796 52.3741 97.5796 51.7889 97.287 50.7648C96.9944 49.887 96.7019 49.1556 95.9704 48.5704C95.3852 47.9852 94.8 47.5463 93.9222 47.4C93.1907 47.4 91.7278 47.4 91.1426 47.5463ZM105.041 47.4C104.163 47.5463 102.846 47.9852 102.115 48.5704C100.506 49.7407 99.4815 51.4963 99.0426 53.6907C98.8963 54.5685 98.8963 56.1778 99.0426 57.0556C99.3352 58.3722 99.7741 59.6889 100.506 60.5667C101.53 61.8833 102.846 62.7611 104.456 63.0537C105.333 63.2 106.796 63.2 107.528 62.9074C108.406 62.6148 108.991 62.3222 109.722 61.737L110.307 61.1519V61.8833V62.6148H113.087H115.867V55.1537V47.6926H113.087H110.307V48.4241V49.1556L109.869 49.0093C109.137 48.2778 108.113 47.6926 106.943 47.5463C106.504 47.4 105.48 47.4 105.041 47.4ZM126.254 47.5463C125.23 47.6926 124.206 48.4241 123.62 49.1556L123.328 49.4482V48.5704V47.6926H120.548H117.769V55.1537V62.6148H120.548H123.328V58.3722C123.328 53.837 123.328 53.837 123.62 53.1056C123.913 52.5204 124.498 52.2278 125.083 52.2278C125.669 52.2278 125.961 52.3741 126.4 52.6667C126.985 53.2519 126.985 53.1056 126.985 58.0796V62.4685H129.765H132.544V57.0556C132.544 51.6426 132.544 51.6426 132.398 51.0574C132.252 50.7648 132.106 50.1796 131.959 49.7407C131.667 49.1556 131.52 49.0093 131.081 48.5704C130.496 47.9852 130.057 47.6926 129.472 47.4C128.448 47.4 127.278 47.2537 126.254 47.5463ZM140.737 47.5463C138.25 47.9852 136.348 49.1556 135.178 51.2037C134.885 51.7889 134.593 52.5204 134.3 53.2519C134.154 53.9833 134.154 54.1296 134.154 55.3C134.154 56.6167 134.154 57.0556 134.593 58.0796C135.47 60.5667 137.519 62.4685 140.298 63.0537C140.737 63.2 141.176 63.2 142.2 63.2C143.663 63.2 144.248 63.0537 145.272 62.6148L145.857 62.3222V59.8352V57.3481L145.419 57.6407C144.687 58.0796 144.248 58.2259 143.37 58.2259C142.493 58.2259 142.054 58.2259 141.469 57.9333C140.883 57.6407 140.444 57.2019 140.152 56.6167C140.006 56.1778 140.006 56.1778 140.006 55.4463C140.006 54.8611 140.006 54.7148 140.152 54.2759C140.591 53.1056 141.615 52.5204 143.078 52.3741C144.102 52.3741 144.541 52.3741 146.004 53.1056C146.004 53.1056 146.004 51.9352 146.004 50.6185V48.1315L145.565 47.9852C143.956 47.4 142.2 47.2537 140.737 47.5463ZM153.319 47.5463C149.076 48.2778 146.443 51.9352 146.735 56.1778C146.881 57.6407 147.32 58.9574 148.052 59.9815C149.076 61.5907 150.685 62.6148 152.733 63.0537C153.611 63.2 155.952 63.2 156.976 63.0537C158.439 62.7611 159.756 62.0296 160.78 61.0056C161.219 60.5667 161.95 59.5426 161.95 59.5426C161.95 59.5426 160.926 59.1037 159.609 58.6648L157.269 57.787L156.976 58.0796C156.537 58.5185 156.244 58.6648 155.659 58.8111C154.05 59.25 152.441 58.3722 152.148 56.9093V56.6167H157.269H162.389V55.3C162.389 54.4222 162.389 53.837 162.243 53.5444C161.95 51.7889 161.219 50.6185 160.194 49.4482C159.17 48.4241 158 47.8389 156.391 47.5463C155.806 47.4 154.05 47.4 153.319 47.5463ZM74.9037 55.3V62.7611H77.6833H80.463V55.3V47.8389H77.6833H74.9037V55.3ZM155.513 51.6426C155.952 51.7889 156.098 51.9352 156.537 52.2278C156.83 52.5204 157.122 52.813 157.122 53.2519V53.5444H154.635C151.856 53.5444 152.002 53.5444 152.294 52.9593C152.733 51.9352 154.05 51.35 155.513 51.6426ZM108.259 52.3741C108.991 52.5204 109.869 53.2519 110.161 53.9833C110.893 55.5926 110.161 57.4944 108.406 58.0796C107.82 58.2259 106.943 58.2259 106.357 58.0796C105.48 57.787 104.602 57.0556 104.456 56.1778C104.309 55.7389 104.309 55.5926 104.309 55.1537C104.309 54.5685 104.309 54.4222 104.602 53.9833C105.187 52.6667 106.65 52.0815 108.259 52.3741Z" fill="white"/>
</svg>
