<svg width="280" height="41" viewBox="0 0 280 41" fill="none" xmlns="http://www.w3.org/2000/svg">
<path d="M67.7809 17.3366L67.3147 19.7142H67.1748C66.5688 18.4089 64.8904 16.5441 61.1608 16.5441C55.1468 16.5441 48.993 21.2061 47.641 28.5254C46.4755 34.959 49.5524 40.6 56.6853 40.6C59.296 40.6 62.2797 39.5744 63.8648 37.3832H64.0047L63.5851 39.8075H70.2517L74.4009 17.3366H67.7809ZM65.5897 28.5254C65.1702 30.7166 63.0723 34.3063 58.8765 34.3063C54.7739 34.3063 53.9347 30.7166 54.3077 28.6187C54.7739 26.0546 57.0583 22.8378 60.9744 22.8378C64.7972 22.8844 66.1026 25.9147 65.5897 28.5254Z" fill="white"/>
<path d="M78.1775 17.3366H84.4246L84.005 19.7142H84.1449C84.9374 18.642 86.5225 16.5441 90.3453 16.5441L89.0866 23.3506C85.9164 23.3972 83.6321 24.0499 83.026 27.4998L80.7416 39.8075H74.0283L78.1775 17.3366Z" fill="white"/>
<path d="M94.82 8.57202H101.58L98.4097 25.4951H98.5029L106.288 17.3366H114.214L103.957 27.22L109.832 39.8075H102.233L97.8969 28.9916H97.757L95.799 39.8075H89.0391L94.82 8.57202Z" fill="white"/>
<path d="M124.984 16.5441C118.177 16.5441 112.117 22.4182 110.998 28.6653C109.739 35.3319 114.261 40.5534 120.695 40.5534C122.979 40.5534 125.357 39.8541 127.408 38.5021C129.553 37.1967 131.511 35.2853 133.003 32.7678H126.149C125.031 33.9333 123.725 34.8657 121.674 34.8657C119.063 34.8657 117.105 33.2807 117.245 30.6233H134.075C134.261 30.1105 134.401 29.6909 134.541 28.8518C135.846 21.9986 131.837 16.5441 124.984 16.5441ZM118.177 26.1012C118.69 24.7958 120.555 22.2317 124.052 22.2317C127.548 22.2317 128.387 24.7492 128.387 26.1012H118.177Z" fill="white"/>
<path d="M38.7366 8.57202L26.8951 26.3809H26.8019V8.57202H21.0676L0.0419922 39.8075H8.2005L19.9954 21.9986H20.0886V39.8075H25.8695L37.6644 21.9986H37.7576V39.8075H44.5175V8.57202H38.7366Z" fill="white"/>
<path d="M151.604 17.3366H147.362L148.621 10.6699H142.747L142.28 13.234C141.768 16.1711 139.903 17.0569 137.479 17.3366H137.432L136.406 22.4182H139.716L136.499 39.7608H143.213L146.43 22.4182H150.719L151.604 17.3366Z" fill="white"/>
<path d="M255.52 31.3226C253.329 36.4042 248.06 40.6 242 40.6C235.193 40.6 230.951 35.2387 232.163 28.5254C233.422 21.952 239.482 16.5907 246.242 16.5907C252.163 16.5907 256.266 20.5534 256.405 26.0546H249.599C249.179 24.4695 248.154 22.8844 245.31 22.8844C242.14 22.7445 239.529 25.3086 238.923 28.572C238.317 31.8821 239.995 34.3063 243.212 34.3063C245.963 34.3063 247.641 32.7212 248.62 31.276L255.52 31.3226ZM199.902 0.600006L186.848 8.57204H190.531L178.69 26.3809H178.55V8.57204H172.769L160.974 26.3809H160.834V8.57204H154.121V39.8075H159.995L171.837 21.9986H171.977V39.8075H177.757L198.69 8.57204H202L199.902 0.600006ZM212.629 39.8075H205.963L206.382 37.3832H206.242C204.657 39.5744 201.674 40.6 199.063 40.6C191.93 40.6 188.853 35.0056 190.019 28.5254C191.324 21.2061 197.524 16.5441 203.538 16.5441C207.221 16.5441 208.946 18.3622 209.552 19.7142H209.692L210.158 17.3366H216.825L212.629 39.8075ZM201.347 34.3529C205.496 34.3529 207.594 30.7632 208.06 28.572C208.527 25.8681 207.268 22.8844 203.445 22.8844C199.576 22.8844 197.291 26.1012 196.778 28.6653C196.405 30.7632 197.245 34.3529 201.347 34.3529ZM233.608 17.3366H229.412L230.671 10.6699H224.797L224.331 13.234C223.818 16.1711 221.953 17.0569 219.529 17.3366H219.436L218.457 22.4182H221.767L218.55 39.7609H225.263L228.48 22.4182H232.769L233.608 17.3366ZM261.86 8.57204H268.573L266.522 19.7142H266.662C268.107 17.6163 270.019 16.5441 273.002 16.5441C275.147 16.5441 277.571 17.3366 278.69 19.0615C280.135 21.2527 279.995 23.2107 279.203 27.2201L276.918 39.7609H270.205L272.443 27.5464C272.629 26.4741 273.282 22.8378 269.739 22.8378C265.963 22.8378 265.31 26.1944 265.123 27.3133L262.839 39.7609H256.126L261.86 8.57204Z" fill="white"/>
</svg>
