<svg width="218" height="40" viewBox="0 0 218 40" fill="none" xmlns="http://www.w3.org/2000/svg">
<path d="M0 0H15.915C18.9464 0 21.22 0.757857 22.9041 2.02095C24.7566 3.53666 25.7671 5.72602 25.7671 8.42062C25.7671 11.5363 24.504 13.473 21.9778 14.6519V14.8203C25.3461 15.915 27.2828 18.9464 27.2828 22.5673C27.2828 26.0197 25.9355 28.7143 23.7462 30.3984C21.8936 31.7457 19.5358 32.3352 16.336 32.3352H0V0ZM14.3151 12.6309C15.9992 12.6309 17.2623 11.7047 17.2623 9.76792C17.2623 7.91539 15.9992 6.98912 14.2308 6.98912H8.75745V12.5467H14.3151V12.6309ZM15.0729 25.1777C17.0097 25.1777 18.4412 23.9988 18.4412 21.8936C18.4412 19.6201 16.9254 18.6096 15.0729 18.6096H8.84165V25.2619H15.0729V25.1777Z" fill="white"/>
<path d="M28.7148 0H37.0513V32.4194H28.7148V0Z" fill="white"/>
<path d="M38.7344 20.8835C38.7344 13.5575 43.4499 8.67355 50.7759 8.67355C58.1018 8.67355 62.7331 13.6417 62.7331 20.8835C62.7331 28.2094 58.1018 33.0934 50.7759 33.0934C43.4499 33.0934 38.7344 28.2094 38.7344 20.8835ZM54.3967 20.8835C54.3967 16.8416 53.1336 14.3154 50.6075 14.3154C48.0813 14.3154 46.9024 16.8416 46.9024 20.8835C46.9024 24.9254 48.0813 27.5358 50.6075 27.5358C53.1336 27.4515 54.3967 24.9254 54.3967 20.8835Z" fill="white"/>
<path d="M63.6602 20.8835C63.6602 13.5575 68.3757 8.67355 75.7016 8.67355C83.0276 8.67355 87.5747 13.5575 87.5747 20.8835C87.5747 28.2094 82.9434 33.0934 75.6174 33.0934C68.3757 33.0934 63.6602 28.2094 63.6602 20.8835ZM79.3225 20.8835C79.3225 16.8416 78.0594 14.3154 75.5332 14.3154C73.007 14.3154 71.8282 16.8416 71.8282 20.8835C71.8282 24.9254 73.007 27.5358 75.5332 27.5358C78.0594 27.4515 79.3225 24.9254 79.3225 20.8835Z" fill="white"/>
<path d="M89.2588 9.26264H97.0058V12.7151H97.1742C98.6899 10.0205 100.795 8.58899 104.163 8.58899C107.111 8.58899 109.3 10.0205 110.395 12.5467H110.563C112.416 9.51526 114.857 8.58899 117.721 8.58899C123.11 8.58899 125.383 12.5467 125.383 17.8517V32.3351H117.299V19.2832C117.299 16.9254 116.542 15.4097 114.521 15.4097C112.5 15.4097 111.489 17.2622 111.489 19.7884V32.3351H103.405V19.2832C103.405 16.9254 102.648 15.4097 100.627 15.4097C98.6057 15.4097 97.5952 17.2622 97.5952 19.7884V32.3351H89.2588C89.2588 32.3351 89.2588 9.26264 89.2588 9.26264Z" fill="white"/>
<path d="M135.572 29.3038H135.488V32.3352H127.741V0H135.825V11.6205H135.993C137.509 9.59951 139.614 8.50483 142.561 8.50483C148.372 8.50483 151.74 13.7256 151.74 20.7147C151.74 28.5459 148.119 33.093 142.056 33.093C139.53 33.093 136.92 31.9142 135.572 29.3038ZM143.404 20.6305C143.404 16.9254 142.056 14.4835 139.614 14.4835C137.088 14.4835 135.572 16.9254 135.572 20.6305C135.572 24.3356 137.172 26.7776 139.614 26.7776C142.056 26.7776 143.404 24.4198 143.404 20.6305Z" fill="white"/>
<path d="M152.666 20.7989C152.666 13.5572 157.466 8.58899 164.371 8.58899C167.823 8.58899 170.434 9.68367 172.454 11.6204C175.149 14.2308 176.328 18.2727 176.244 22.9883H160.75C161.087 25.8513 162.434 27.367 164.876 27.367C166.307 27.367 167.571 26.6933 168.076 25.1776H175.907C174.56 30.4826 170.434 33.093 164.623 33.093C157.466 33.0088 152.666 28.1248 152.666 20.7989ZM160.75 18.3569H168.16C167.992 15.5781 166.476 14.1466 164.539 14.1466C162.266 14.0624 161.002 15.6623 160.75 18.3569Z" fill="white"/>
<path d="M185.422 13.2198H185.59C187.274 10.02 189.464 8.7569 192.242 8.7569C192.916 8.7569 193.337 8.8411 193.59 9.00952V16.0828H193.421C188.622 15.2408 185.843 17.5143 185.843 22.7351V32.4188H177.675V9.26213H185.422V13.2198Z" fill="white"/>
<path d="M194.432 32.4192H202.263C202.6 33.4297 203.61 34.356 205.547 34.356C208.157 34.356 209.084 32.7561 209.084 30.3141V28.63H208.915C207.652 30.1457 205.884 31.2403 203.358 31.2403C198.389 31.2403 194.011 27.5353 194.011 20.2935C194.011 13.6412 197.547 8.50467 202.937 8.50467C206.052 8.50467 207.905 9.76776 209.168 11.7045H209.336V9.17832H217.083V29.2194C217.083 32.9245 215.82 35.7875 213.883 37.4716C211.862 39.2399 208.999 39.9978 205.715 39.9978C199.484 40.082 195.19 37.5558 194.432 32.4192ZM209.42 19.9567C209.42 17.0937 208.073 14.7359 205.715 14.7359C203.442 14.7359 202.01 16.7569 202.01 19.9567C202.01 23.0723 203.442 25.2617 205.715 25.2617C207.989 25.2617 209.42 22.9881 209.42 19.9567Z" fill="white"/>
</svg>
