<svg width="295" height="40" viewBox="0 0 295 40" fill="none" xmlns="http://www.w3.org/2000/svg">
<path d="M42.3529 39.902H70.5882V32.451H50.8824V23.3333H67.2059V15.8824H50.8824V7.45098H70.6863V0H42.3529V39.902ZM104.559 25.098L86.0784 0H73.3333L77.3039 5.04902V40H85.8333V13.8235L104.951 39.902H113.088V0H104.559V25.098ZM29.4608 19.3628C33.1863 18.6275 36.3235 15.1471 36.3235 10.2451C36.2745 4.95099 32.451 0 24.7549 0H0L3.82353 4.90196V39.902H25.5882C33.2843 39.902 37.2549 35.098 37.2549 29.0686C37.1569 24.1667 33.7745 19.951 29.4608 19.3628ZM12.402 7.5H23.0882C25.9804 7.5 27.7941 9.16667 27.7941 11.7157C27.7941 14.2157 25.9804 15.9314 23.0882 15.9314H12.402V7.5ZM23.4804 32.5H12.451V23.3333H23.4804C26.7157 23.3333 28.5294 25.3922 28.5294 27.8922C28.5294 30.7843 26.6176 32.451 23.4804 32.5ZM237.941 25.098H242.402V29.8039C240.098 31.7157 237.206 32.7451 234.216 32.7941C227.108 32.7941 222.059 27.402 222.059 20.049C222.059 12.7451 227.108 7.30393 234.216 7.30393C237.941 7.35295 241.373 9.21569 243.333 12.3529L250.049 8.62746C247.157 4.06863 242.108 0 234.069 0C222.794 0 213.382 7.79412 213.382 19.951C213.382 32.1078 222.647 39.902 234.069 39.902C240.294 40 246.275 37.3529 250.392 32.6961V17.9412H232.206L237.941 25.098ZM199.51 25.098L180.98 0H168.235L172.206 5.04902V40H180.735V13.8235L199.853 39.902H208.039V0H199.51V25.098ZM278.677 0H262.206L266.177 5.04902L265.441 6.96078L252.696 40H262.304L264.804 33.2843H282.01L284.51 40H294.118L278.677 0ZM267.059 25.7353L273.284 8.52942L279.51 25.7353H267.059ZM154.804 0H163.333V40H154.804V0ZM147.941 6.86275V0H117.892V7.45098H136.765L117.892 33.0392V39.902H148.284V32.451H128.922L147.941 6.86275Z" fill="white"/>
</svg>
